<?xml version="1.0" encoding="UTF-8" standalone="no"?>
<svg
   xmlns:dc="http://purl.org/dc/elements/1.1/"
   xmlns:cc="http://creativecommons.org/ns#"
   xmlns:rdf="http://www.w3.org/1999/02/22-rdf-syntax-ns#"
   xmlns:svg="http://www.w3.org/2000/svg"
   xmlns="http://www.w3.org/2000/svg"
   xmlns:sodipodi="http://sodipodi.sourceforge.net/DTD/sodipodi-0.dtd"
   xmlns:inkscape="http://www.inkscape.org/namespaces/inkscape"
   width="23.662102"
   height="22.009766"
   viewBox="0 0 6.2605979 5.8234171"
   version="1.1"
   id="svg8"
   inkscape:version="1.0.2 (e86c870879, 2021-01-15)"
   sodipodi:docname="add-clock-icon.svg"
   inkscape:export-filename="C:\Projetos\shift-control\src\assets\add-clock-icon.png"
   inkscape:export-xdpi="730.28003"
   inkscape:export-ydpi="730.28003">
  <defs
     id="defs2" />
  <sodipodi:namedview
     id="base"
     pagecolor="#ffffff"
     bordercolor="#666666"
     borderopacity="1.0"
     inkscape:pageopacity="0.0"
     inkscape:pageshadow="2"
     inkscape:zoom="8"
     inkscape:cx="-4.5662933"
     inkscape:cy="7.6903267"
     inkscape:document-units="mm"
     inkscape:current-layer="g851"
     inkscape:document-rotation="0"
     showgrid="false"
     inkscape:window-width="1920"
     inkscape:window-height="1017"
     inkscape:window-x="1912"
     inkscape:window-y="32"
     inkscape:window-maximized="1"
     fit-margin-top="0"
     fit-margin-left="0"
     fit-margin-right="0"
     fit-margin-bottom="0"
     lock-margins="true"
     units="px" />
  <metadata
     id="metadata5">
    <rdf:RDF>
      <cc:Work
         rdf:about="">
        <dc:format>image/svg+xml</dc:format>
        <dc:type
           rdf:resource="http://purl.org/dc/dcmitype/StillImage" />
        <dc:title />
      </cc:Work>
    </rdf:RDF>
  </metadata>
  <g
     inkscape:label="Layer 1"
     inkscape:groupmode="layer"
     id="layer1"
     transform="translate(-94.464752,-217.76674)">
    <g
       style="fill:none"
       id="g844"
       transform="matrix(0.26458333,0,0,0.26458333,94.662168,217.21544)" />
    <g
       id="g851">
      <path
         id="path854"
         style="fill:#8d8fc9;fill-opacity:1;stroke:none;stroke-width:2.64567;stroke-opacity:1"
         d="m 9.4648438,16.740234 a 5.9374998,5.9374998 0 0 0 -5.9375,5.9375 5.9374998,5.9374998 0 0 0 5.9375,5.9375 5.9374998,5.9374998 0 0 0 5.9375002,-5.9375 5.9374998,5.9374998 0 0 0 -5.9375002,-5.9375 z m -0.7949219,2.763672 h 1.5898441 v 2.705078 h 2.705078 v 1.589844 h -2.705078 v 2.705078 H 8.6699219 V 23.798828 H 5.9648438 v -1.589844 h 2.7050781 z"
         transform="matrix(0.26458333,0,0,0.26458333,93.531476,216.01904)" />
      <path
         id="circle856"
         style="fill:#8d8fc9;fill-opacity:1;stroke:none;stroke-width:3.28222;stroke-opacity:1"
         d="m 16.773438,6.6054688 c -5.34344,0 -9.7802412,4.0781622 -10.3535161,9.2753902 -0.00222,0.02035 -0.00377,0.04042 -0.00586,0.06055 a 7.3959074,7.3959074 0 0 1 3.0507813,-0.658203 7.3959074,7.3959074 0 0 1 7.3945308,7.394531 7.3959074,7.3959074 0 0 1 -1.638672,4.644532 c 0.0013,1.29e-4 0.0026,-1.09e-4 0.0039,0 0.505796,0.07597 1.022639,0.115234 1.548829,0.115234 5.729196,0 10.416015,-4.686894 10.416015,-10.416016 0,-5.729196 -4.686819,-10.4160152 -10.416015,-10.4160152 z m -1.041016,5.2089842 h 1.5625 v 5.416016 l 4.6875,2.8125 -0.833984,1.353515 -5.416016,-3.333984 z"
         transform="matrix(0.26458333,0,0,0.26458333,93.531476,216.01904)" />
    </g>
  </g>
</svg>
